<svg width="100" height="100" fill="none" xmlns="http://www.w3.org/2000/svg"><g clip-path="url(#clip0)" fill="#000"><path d="M99.807 54.62a39.528 39.528 0 00-11.36-23.975 39.22 39.22 0 00-19.294-10.593v-4.963c2.89-.719 5.037-3.335 5.037-6.444a6.648 6.648 0 00-6.64-6.64H53.487a6.648 6.648 0 00-6.64 6.64c0 3.11 2.147 5.725 5.037 6.444v4.977a39.217 39.217 0 00-19.234 10.58 39.644 39.644 0 00-3.316 3.763 1.832 1.832 0 00-.148-.007H15.267a1.953 1.953 0 000 3.906h11.409a39.15 39.15 0 00-3.466 7.507H1.953a1.953 1.953 0 000 3.907h20.154a39.712 39.712 0 00-.97 7.507H12.5a1.953 1.953 0 000 3.906h8.7a39.646 39.646 0 001.22 7.508H9.765a1.953 1.953 0 000 3.906h13.9a39.225 39.225 0 008.984 13.893 39.526 39.526 0 0023.998 11.364c1.29.127 2.581.19 3.87.19 7.623 0 15.147-2.206 21.532-6.364a1.953 1.953 0 00-2.132-3.273c-13.976 9.101-32.693 7.133-44.506-4.68-13.86-13.86-13.86-36.41 0-50.271 13.86-13.86 36.412-13.86 50.272 0 11.797 11.797 13.775 30.499 4.704 44.468a1.953 1.953 0 003.276 2.127c4.847-7.464 7.028-16.478 6.143-25.384zM50.753 8.644a2.737 2.737 0 012.734-2.734H67.55a2.737 2.737 0 012.734 2.734 2.737 2.737 0 01-2.734 2.735H53.487a2.738 2.738 0 01-2.734-2.735zm5.037 10.75v-4.109h9.456v4.101a39.795 39.795 0 00-9.456.007z"/><path d="M87.066 83.107c-.516 0-1.018.209-1.381.572a1.96 1.96 0 00-.573 1.38 1.956 1.956 0 003.334 1.38c.364-.362.573-.865.573-1.38 0-.513-.209-1.017-.573-1.38a1.971 1.971 0 00-1.38-.572zM60.548 28.244c-16.707 0-30.299 13.593-30.299 30.3s13.592 30.299 30.3 30.299c16.706 0 30.298-13.592 30.298-30.3 0-16.706-13.592-30.299-30.299-30.299zm0 56.692c-14.553 0-26.393-11.84-26.393-26.392 0-14.553 11.84-26.393 26.393-26.393s26.393 11.84 26.393 26.393S75.1 84.936 60.548 84.936z"/><path d="M72.903 43.426L63.229 53.1a6.032 6.032 0 00-2.681-.626c-.962 0-1.872.226-2.68.626l-4.33-4.33a1.953 1.953 0 00-2.763 2.763l4.33 4.33a6.03 6.03 0 00-.626 2.68 6.076 6.076 0 006.069 6.07 6.076 6.076 0 006.07-6.07c0-.962-.227-1.872-.627-2.68l9.39-9.39.284-.284a1.953 1.953 0 00-2.762-2.763zm-12.355 17.28a2.165 2.165 0 01-2.163-2.163c0-1.192.97-2.162 2.163-2.162 1.193 0 2.163.97 2.163 2.163 0 1.192-.97 2.162-2.163 2.162zm20.882-4.092h-1.809a1.953 1.953 0 000 3.906h1.81a1.953 1.953 0 000-3.906zm-39.956-.048h-1.809a1.953 1.953 0 000 3.907h1.81a1.953 1.953 0 000-3.907zm19.098-15.143a1.953 1.953 0 001.953-1.953v-1.81a1.953 1.953 0 00-3.906 0v1.81c0 1.079.874 1.953 1.953 1.953zm-.048 34.241a1.953 1.953 0 00-1.953 1.953v1.81a1.953 1.953 0 003.906 0v-1.81a1.953 1.953 0 00-1.953-1.953zM1.953 68.642c-.514 0-1.017.209-1.38.572A1.968 1.968 0 000 70.594c0 .517.209 1.019.572 1.382.364.363.867.572 1.381.572s1.018-.209 1.38-.572c.364-.364.573-.867.573-1.381s-.209-1.018-.572-1.381a1.967 1.967 0 00-1.38-.572z"/></g><defs><clipPath id="clip0"><path fill="#fff" d="M0 0h100v100H0z"/></clipPath></defs></svg>