<svg width="100" height="100" fill="none" xmlns="http://www.w3.org/2000/svg"><g clip-path="url(#clip0)"><path d="M93.803 81.662v-5.368c0-6.606-3.33-11.285-10.152-14.22-4.205-1.81-6.51-1.735-22.832-5.053v-4.493c4.894-3.3 7.437-7.997 7.946-13.149a4.613 4.613 0 004.418-4.603v-3.483l-.001-.11a4.368 4.368 0 002.758-4.056 4.367 4.367 0 00-3.745-4.317v-1.54C72.195 9.521 62.673 0 50.926 0h-1.8C37.38 0 27.858 9.522 27.858 21.268v1.542a4.367 4.367 0 00-3.745 4.317 4.367 4.367 0 002.758 4.056l-.001.11v3.483a4.613 4.613 0 004.417 4.603c.509 5.142 3.027 9.83 7.947 13.148v4.494c-16.344 3.323-18.622 3.241-22.832 5.053C9.58 65.008 6.25 69.688 6.25 76.294v17.078A6.628 6.628 0 0012.878 100h74.297a6.628 6.628 0 006.628-6.628v-5.85c0-1.936-2.93-1.94-2.93 0v5.85a3.698 3.698 0 01-3.698 3.698h-7.308c-.396-10.423 1.145-14.718-2.146-20.537-2.645-4.679-1.508-8.485-1.781-13.587.587.273 14.933 1.288 14.933 13.347v5.369c0 1.937 2.93 1.94 2.93 0zM64.432 60.708c-5.422 7.881-5.297 7.846-6.218 8.499-.673.476-1.347.74-2.218.219l-2.962-1.776c2.623-1.505 6.5-4.24 7.527-7.694l3.87.752zM23.108 87.412h13.797v3.809H23.11l-.003-3.81zm.006 6.74H37.54a2.297 2.297 0 002.294-2.295c-.167-4.433.44-5.593-.67-6.704-1.18-1.18-1.405-.448-16.058-.672a13.772 13.772 0 011.777-6.506c3.167-5.602 1.852-10.181 2.16-15.599l5.444-1.059c1.129 1.658 9.165 13.32 13.076 18.902a16.495 16.495 0 012.999 9.507v7.344H23.116l-.002-2.919zM47.018 67.65l-2.961 1.775c-1.262.758-2.614-.273-3.445-1.477a4723.056 4723.056 0 01-4.99-7.241l3.87-.752c1.027 3.454 4.904 6.189 7.526 7.695zm3.009 14.65a19.534 19.534 0 00-2.065-3.763c-1.22-1.743-2.666-3.822-4.153-5.966 1.547-.235 2.095-.945 6.218-3.309 4.1 2.352 4.675 3.075 6.217 3.309a1491.582 1491.582 0 01-4.154 5.966 19.531 19.531 0 00-2.063 3.763zm9.565-77.19c.744.4 1.456.85 2.134 1.344V8.86c-.559.149-1.575.149-2.134 0V5.11zm-8.499-2.18v10.422c-.559.149-1.574.149-2.133 0V2.931h2.133zM38.328 6.455c.677-.495 1.39-.944 2.132-1.345v3.75c-.558.148-1.574.148-2.132 0V6.454zm-2.93 2.669v.262c0 3.385 7.993 3.392 7.993 0V3.85a18.123 18.123 0 012.639-.657V13.88c0 3.362 7.994 3.403 7.994 0V3.192c.903.154 1.784.375 2.638.657v5.537c0 3.385 7.994 3.392 7.994 0v-.262c5.445 6.149 4.501 12.998 4.609 13.643H30.788c.11-.652-.859-7.47 4.61-13.643zm-1.266 28.763c-.04-1.89-2.381-1.368-2.655-1.434a1.68 1.68 0 01-1.677-1.678v-3.287h6.241c1.937 0 1.94-2.93 0-2.93h-7.567a1.431 1.431 0 010-2.86H71.58a1.431 1.431 0 010 2.86H41.9c-1.937 0-1.939 2.93 0 2.93h28.352v3.288a1.68 1.68 0 01-1.678 1.677c-.302.073-2.613-.45-2.653 1.434-.193 8.999-7.786 14.955-15.895 15.053-8.086-.098-15.702-6.032-15.895-15.053zM50.01 55.87h.033c2.783-.031 5.406-.603 7.845-1.704v4.062c0 1.586-1.427 3.497-4.02 5.382a28.612 28.612 0 01-3.841 2.319 28.566 28.566 0 01-3.842-2.319c-2.592-1.885-4.02-3.796-4.02-5.382v-4.062c2.439 1.101 5.063 1.673 7.845 1.704zM9.18 93.372V76.294c0-6.396 3.614-10.321 11.717-12.722l3.216-.626c-.273 5.111.863 8.91-1.781 13.587-3.297 5.83-1.75 10.138-2.146 20.537h-7.308a3.702 3.702 0 01-3.698-3.698zm67.762-2.151h-13.8v-3.81h13.803l-.003 3.81zM75.17 77.975a13.772 13.772 0 011.777 6.506h-14.44a2.297 2.297 0 00-2.294 2.294v5.081a2.297 2.297 0 002.294 2.295h14.432l-.003 2.919H51.491v-7.344a16.49 16.49 0 013-9.507c3.862-5.514 12-17.321 13.076-18.9l5.443 1.057c.31 5.45-1.008 9.997 2.16 15.599z" fill="#000"/></g><defs><clipPath id="clip0"><path fill="#fff" d="M0 0h100v100H0z"/></clipPath></defs></svg>