<svg width="100" height="100" fill="none" xmlns="http://www.w3.org/2000/svg"><path d="M15 100h70c8.284 0 15-6.716 15-15V15c0-8.284-6.716-15-15-15H15C6.716 0 0 6.716 0 15v70c0 8.284 6.716 15 15 15zM3.333 15C3.333 8.557 8.557 3.333 15 3.333h70c6.443 0 11.667 5.224 11.667 11.667v70c0 6.443-5.224 11.667-11.667 11.667H15C8.557 96.667 3.333 91.443 3.333 85V15z" fill="#000"/><path d="M28.333 27.2a1.666 1.666 0 00-2.183-1.667 10.917 10.917 0 00-7.817 10.3A10.917 10.917 0 0026.15 46.05a1.667 1.667 0 002.183-1.583V27.2zM25 41.817a7.05 7.05 0 010-11.967v11.967zm8.85 32.566a10.583 10.583 0 000-20.433 1.667 1.667 0 00-2.183 1.667V72.8a1.667 1.667 0 002.183 1.583zm1.15-16.2a7.05 7.05 0 010 11.967V58.183z" fill="#000"/><path d="M21.667 64.167a6.667 6.667 0 00-13.334 0A20.95 20.95 0 0025 84.417V85a5 5 0 0010 0v-.583a20.633 20.633 0 000-40.5V29.85a7.317 7.317 0 013.333 5.983 6.667 6.667 0 0013.334 0A20.95 20.95 0 0035 15.583V15a5 5 0 10-10 0v.583a20.95 20.95 0 00-16.667 20.25A20.95 20.95 0 0025 56.083V70.15a7.317 7.317 0 01-3.333-5.983zm5.266-11.1a17.7 17.7 0 01-15.266-17.234A17.7 17.7 0 0126.933 18.6a1.667 1.667 0 001.4-1.667V15a1.667 1.667 0 113.334 0v1.95a1.667 1.667 0 001.4 1.667 17.7 17.7 0 0115.266 17.216 3.333 3.333 0 11-6.666 0 10.916 10.916 0 00-7.817-10.216 1.667 1.667 0 00-2.183 1.666v18a1.667 1.667 0 001.4 1.667c8.693 1.083 15.218 8.472 15.218 17.233 0 8.761-6.525 16.15-15.218 17.234a1.667 1.667 0 00-1.4 1.666V85a1.667 1.667 0 11-3.334 0v-1.95a1.667 1.667 0 00-1.4-1.667 17.7 17.7 0 01-15.266-17.216 3.333 3.333 0 116.666 0 10.916 10.916 0 007.817 10.216 1.666 1.666 0 002.183-1.666v-18a1.667 1.667 0 00-1.4-1.65zm38.9-26.4h15a2.5 2.5 0 002.5-2.5v-8.334a2.5 2.5 0 00-2.5-2.5h-15a2.5 2.5 0 00-2.5 2.5v8.334a2.5 2.5 0 002.5 2.5zm.834-10H80v6.666H66.667v-6.666zm4.816 53.783a2.517 2.517 0 003.7 0l16.484-17.933a2.5 2.5 0 00-1.9-4.184h-6.434V32.5a2.5 2.5 0 00-2.5-2.5h-15a2.5 2.5 0 00-2.5 2.5v15.833H56.9a2.5 2.5 0 00-1.9 4.184L71.483 70.45zm-7.316-18.783a2.5 2.5 0 002.5-2.5V33.333H80v15.834a2.5 2.5 0 002.5 2.5h5.383l-14.55 15.866-14.55-15.866h5.384z" fill="#000"/></svg>