<svg width="100" height="100" fill="none" xmlns="http://www.w3.org/2000/svg"><g clip-path="url(#clip0)" fill="#020202"><path d="M20.898 37.11c0 16.154 13.143 29.296 29.297 29.296 16.155 0 29.297-13.142 29.297-29.297 0-16.154-13.142-29.297-29.297-29.297-16.154 0-29.297 13.143-29.297 29.297zm29.297-25.391c14.001 0 25.391 11.39 25.391 25.39 0 14.001-11.39 25.391-25.39 25.391-14.001 0-25.391-11.39-25.391-25.39 0-14.001 11.39-25.391 25.39-25.391z"/><path d="M32.108 33.627l7.57 7.46-1.741 10.483a1.953 1.953 0 002.826 2.054l9.432-4.898 9.432 4.898a1.952 1.952 0 002.827-2.054l-1.742-10.483 7.57-7.46a1.952 1.952 0 00-1.08-3.322l-10.506-1.582-4.754-9.507a1.953 1.953 0 00-3.494 0l-4.754 9.507-10.506 1.582a1.953 1.953 0 00-1.08 3.322zm13.171-1.192a1.954 1.954 0 001.456-1.058l3.46-6.92 3.46 6.92c.285.569.828.963 1.457 1.058l7.647 1.151-5.511 5.428a1.956 1.956 0 00-.556 1.712l1.268 7.63-6.865-3.564a1.948 1.948 0 00-1.8 0l-6.865 3.565 1.268-7.63a1.952 1.952 0 00-.556-1.712l-5.51-5.429 7.647-1.151zm6.869-30.482a1.953 1.953 0 11-3.906 0 1.953 1.953 0 013.906 0z"/><path d="M40.99 1.151C24.56 5.345 13.086 20.131 13.086 37.11a36.994 36.994 0 0012.216 27.517L13.535 85.364a1.953 1.953 0 002.096 2.876l13.363-2.775L33.691 98.7a1.953 1.953 0 003.537.312l12.967-22.796 12.966 22.796a1.952 1.952 0 003.54-.312l4.695-13.235 13.363 2.775a1.954 1.954 0 002.096-2.876L75.088 64.626A36.994 36.994 0 0087.304 37.11c0-16.977-11.475-31.764-27.904-35.958a1.953 1.953 0 10-.966 3.785C73.132 8.688 83.399 21.92 83.399 37.11c0 18.489-15.016 33.204-33.204 33.204-18.2 0-33.203-14.727-33.203-33.204 0-15.19 10.266-28.42 24.964-32.173a1.954 1.954 0 00-.966-3.785zm-5.046 92.22l-3.838-10.817a1.953 1.953 0 00-2.238-1.26l-10.805 2.244 9.312-16.412a37.188 37.188 0 0018.545 6.947L35.944 93.37zm34.578-12.077a1.954 1.954 0 00-2.238 1.26L64.446 93.37 53.47 74.073c6.686-.595 13.115-3 18.546-6.947l9.312 16.412-10.806-2.244z"/></g><defs><clipPath id="clip0"><path fill="#fff" d="M0 0h100v100H0z"/></clipPath></defs></svg>